<svg xmlns="http://www.w3.org/2000/svg" xmlns:xlink="http://www.w3.org/1999/xlink" width="1080" zoomAndPan="magnify" viewBox="0 0 810 1012.49997" height="1350" preserveAspectRatio="xMidYMid meet" version="1.0"><defs><clipPath id="164b2cc6df"><path d="M 9.726562 136.417969 L 800.585938 136.417969 L 800.585938 875.554688 L 9.726562 875.554688 Z M 9.726562 136.417969 " clip-rule="nonzero"/></clipPath></defs><g clip-path="url(#164b2cc6df)"><path fill="#73939b" d="M 403.960938 136.429688 C 403.742188 136.65625 397 155.65625 395.707031 158.441406 C 386.839844 177.542969 382.734375 188.320312 390.449219 208.742188 C 395.035156 209.03125 402.292969 208.769531 407.078125 208.742188 C 410.179688 208.828125 412.792969 208.875 415.886719 208.742188 C 430.34375 186.652344 414.242188 165.734375 407.960938 144 L 407.550781 143.933594 L 407.339844 146.335938 C 404.839844 144.910156 404.390625 139.074219 403.960938 136.429688 Z M 410.101562 166.121094 C 415.210938 176.941406 417.582031 187.242188 412.421875 198.386719 C 411.789062 187.136719 412.648438 181.285156 409.070312 169.707031 C 409.367188 168.171875 409.566406 167.605469 410.101562 166.121094 Z M 406.1875 211.167969 C 398.082031 211.078125 389.675781 211.550781 387.730469 211.9375 L 387.171875 212.898438 C 386.917969 218.414062 390.652344 218.878906 395.164062 220.542969 C 394.285156 227.664062 394.605469 230.339844 390.449219 236.558594 C 385.972656 241.828125 378.753906 249.214844 378.140625 256.136719 C 373.710938 256.722656 364.773438 253.140625 359.878906 252.5 C 300.351562 244.699219 257.535156 275.339844 204.664062 296.34375 C 180.582031 305.910156 163.410156 309.789062 139.730469 316.4375 C 148.324219 311.464844 169.59375 292.257812 145.914062 295.488281 C 130.734375 297.554688 86.523438 315.359375 86.421875 282.710938 C 79.726562 281.621094 87.421875 299.6875 88.660156 301.707031 C 96.695312 314.816406 107.25 320.582031 121.996094 324.582031 C 107.734375 367.105469 92.191406 409.246094 78.5 451.964844 C 77.15625 456.167969 72.410156 468.324219 72.039062 471.703125 C 70.21875 476.09375 68.703125 481.105469 67.214844 485.65625 C 62.378906 499.902344 55.398438 523.628906 48.304688 543.328125 C 55.929688 524.300781 63.289062 505.15625 69.679688 485.65625 C 71.714844 481.207031 73.035156 477.6875 74.605469 473.113281 C 80.992188 459.179688 86.074219 442.15625 91.648438 427.789062 C 100.765625 404.285156 116.910156 365.253906 121.335938 340.484375 C 121.964844 355.644531 121.296875 370.195312 121.546875 385.320312 L 122.773438 518.179688 C 122.566406 526.78125 122.746094 535.929688 122.773438 544.574219 C 122.765625 553.3125 122.144531 587.289062 123.9375 593.761719 C 123.792969 595.917969 124.230469 601.082031 124.234375 603.402344 L 124.503906 603.25 C 125.121094 598.132812 125.152344 592.257812 125.148438 587.105469 C 125.8125 584.488281 125.078125 575.800781 125.316406 572.207031 C 127.460938 539.617188 127.46875 505.671875 127.433594 473.113281 L 127.433594 454.09375 L 127.421875 389.058594 C 127.425781 370 127.027344 355.320312 128.738281 336.40625 C 134.792969 364.046875 149.875 400.4375 159.636719 427.152344 L 174.558594 468.433594 C 176.621094 474.050781 179.503906 482.585938 181.878906 487.898438 C 189.5625 509.621094 198.226562 530.253906 205.84375 552.234375 C 204.296875 542.085938 189.332031 497.664062 183.726562 485.65625 C 181.460938 476.851562 178.203125 467.675781 175.3125 459.035156 C 161.097656 416.472656 149.800781 372.394531 131.3125 331.425781 C 130.355469 329.308594 129.535156 326.789062 128.738281 324.582031 C 171.253906 324.730469 202.757812 318.285156 242.3125 302.089844 C 279.0625 287.042969 317.867188 270.78125 358.023438 281.359375 C 379.746094 286.917969 381.230469 290.152344 393.953125 307.082031 C 393.558594 309.191406 393.117188 311.394531 392.761719 313.503906 C 374.167969 311.910156 368.964844 324.347656 378.964844 333.484375 C 384.828125 334.761719 391.949219 333.855469 398.035156 333.484375 C 398.101562 345.617188 397.054688 355.742188 396.269531 367.800781 L 380.574219 639.222656 L 378.160156 693.597656 C 377.347656 711.636719 374.394531 723.84375 385.242188 739.738281 C 387.378906 742.867188 389.054688 744.964844 390.449219 748.488281 C 390.480469 754.460938 389.777344 756.824219 388.457031 762.703125 C 385.882812 763.132812 384.699219 763.261719 382.234375 764.277344 C 379.367188 770.859375 379.054688 776.644531 380.542969 783.601562 C 377.28125 784.433594 374.578125 785.753906 371.464844 786.71875 C 354.886719 791.867188 331.277344 797.71875 315.960938 804.664062 C 313.683594 812.964844 312.824219 818.9375 309.628906 827.0625 C 293.105469 833.683594 280.308594 845.230469 272.140625 861.046875 C 267.902344 869.257812 274.21875 875.355469 282.121094 874.351562 C 356.847656 864.851562 409.945312 859.46875 487.0625 871.035156 C 499.808594 872.945312 526.746094 878.507812 538.109375 873.660156 C 543.226562 869.800781 540.582031 863.550781 537.058594 859.523438 C 532.652344 849.445312 527.160156 844.65625 516.855469 841.285156 C 513.015625 839.738281 505.1875 838.820312 500.632812 837.875 L 500.722656 837.097656 C 501.132812 833.648438 500.828125 830.519531 500.632812 827.0625 C 499.910156 816.925781 496.871094 810.8125 493.65625 801.371094 C 477.597656 795.179688 448.316406 791.617188 431.0625 791.714844 C 432.628906 780.757812 436.460938 766.179688 423.671875 762.703125 C 422.308594 757.597656 421.019531 753.363281 419.007812 748.488281 C 437.652344 728.582031 432.390625 718.816406 431.636719 696.542969 C 431.164062 682.652344 430.113281 668.875 429.253906 655.023438 L 419.203125 477.988281 C 418.808594 470.078125 417.742188 462.050781 417.730469 454.09375 C 417.902344 436.429688 414.167969 418.9375 414.445312 402.785156 C 414.777344 398.671875 414.085938 390.625 413.203125 386.46875 C 411.097656 373.691406 411.632812 361.585938 411.085938 348.84375 L 411.085938 333.484375 C 415.257812 333.375 428.292969 334.167969 431.0625 332.578125 C 431.175781 332.472656 431.28125 332.355469 431.390625 332.230469 C 434.730469 328.367188 436.59375 315.839844 428.410156 313.503906 L 412.421875 313.503906 C 424.144531 294.734375 432.773438 286.417969 455.191406 280.996094 C 499.304688 270.324219 542.109375 290.398438 582.597656 305.378906 C 600.214844 311.839844 656.601562 329.789062 675.699219 324.582031 L 681.683594 325.710938 C 678.730469 336.605469 674.078125 347.15625 670.550781 357.859375 L 645.164062 436.332031 C 642.304688 445.253906 635.753906 463.335938 634.140625 471.703125 C 632.539062 476.144531 631.289062 479.886719 629.964844 484.414062 C 623.425781 499.535156 617.578125 519.015625 612.3125 535.207031 C 610.214844 539.320312 597.65625 573.878906 597.980469 576.210938 C 601.972656 569.484375 610.683594 543.441406 613.546875 535.207031 C 614.828125 530.972656 617.515625 524.410156 619.128906 520 L 632.441406 484.414062 C 634.058594 480.128906 635.621094 476.101562 636.933594 471.703125 C 641.910156 463.472656 649.339844 437.171875 653.195312 427.121094 C 663.832031 399.386719 673.5 372.46875 681.683594 343.898438 L 682.773438 343.898438 C 682.3125 348.496094 682.71875 355.617188 682.75 360.550781 L 682.773438 390.796875 C 683.03125 398.269531 683.273438 415.917969 685.183594 422.214844 C 683.988281 429.632812 685.089844 453.90625 685.886719 461.886719 C 685.539062 478.132812 685.898438 495.699219 685.886719 512.039062 C 685.875 529.074219 683.589844 582.84375 687.191406 600.527344 C 687.171875 601.96875 687.265625 603.34375 687.625 604.425781 L 687.625 602.371094 C 687.574219 601.609375 687.40625 600.433594 687.242188 599.152344 C 687.351562 597.183594 687.597656 595.210938 687.625 593.761719 C 691.011719 584.863281 690.308594 528.023438 690.171875 515.953125 C 690.152344 498.21875 690.542969 479.511719 690.171875 461.886719 C 690.15625 437.867188 689.707031 409.75 691.144531 385.816406 C 691.957031 372.273438 692.199219 352.464844 691.300781 338.589844 C 693.34375 342.949219 694.675781 348.679688 696.199219 353.386719 C 710.222656 396.652344 726.425781 438.972656 742.476562 481.492188 C 743.1875 483.40625 744.816406 488.160156 745.65625 489.730469 C 749.191406 500.160156 775.246094 572.808594 779.171875 576.984375 C 778.789062 573.675781 774.644531 565.378906 773.332031 561.773438 C 764.328125 537.058594 756.363281 512.582031 747.789062 487.898438 C 745.714844 477.101562 739.933594 463.226562 736.507812 452.410156 C 724.96875 416.011719 713.011719 379.664062 699.644531 343.894531 C 697.183594 337.3125 694.585938 331.417969 692.765625 324.582031 C 709.949219 321.914062 726.394531 307.484375 726.222656 289.269531 C 714.996094 303.035156 699.984375 304.789062 683.175781 301.476562 C 680.03125 300.855469 658.707031 290.796875 660.984375 300.011719 C 663.09375 308.542969 667.085938 311.84375 673.71875 316.4375 C 665.101562 313.933594 656.179688 313.195312 647.480469 310.355469 C 588.167969 291 494.226562 233.089844 431.894531 257.75 C 427.054688 245.816406 423.570312 245.246094 415.257812 236.558594 C 413.898438 231.078125 413.671875 226.035156 412.421875 220.542969 C 415.742188 219.667969 422.023438 217.605469 422.847656 213.769531 C 422.097656 211.910156 414.292969 211.257812 406.1875 211.167969 Z M 779.167969 576.984375 C 779.449219 578.363281 779.640625 578.609375 779.167969 579.925781 C 781.652344 578.96875 784.859375 577.703125 787.40625 576.984375 C 801.90625 580.445312 800.585938 596.402344 787.40625 599.765625 C 783.496094 599.398438 780.183594 593.28125 779.167969 589.8125 C 778.582031 586.664062 778.824219 583.097656 779.167969 579.925781 L 778.003906 580.265625 C 776.667969 582.871094 776.921875 588.207031 777.089844 591.199219 C 778.121094 594.515625 780.355469 598.402344 782.484375 601.140625 C 754.367188 602.238281 727.839844 607.320312 698.496094 606.6875 C 695.859375 606.628906 692.765625 606.566406 690.171875 606.699219 C 690.003906 606.679688 689.84375 606.652344 689.691406 606.613281 C 688.628906 606.335938 687.992188 605.53125 687.625 604.425781 L 687.625 606.699219 C 685.109375 606.738281 677.476562 606.492188 675.699219 606.699219 C 653.210938 607.667969 625.746094 606.980469 603.820312 604.21875 C 600.636719 603.824219 597.164062 602.894531 594.46875 601.140625 C 597.886719 592.816406 604.957031 578.746094 590.648438 576.984375 C 580.582031 577.503906 576.980469 584.347656 578.910156 593.761719 C 580.597656 597.589844 584.324219 601.246094 586.792969 604.6875 C 629.851562 664.714844 745.214844 671.496094 786.367188 605.015625 C 787.554688 603.8125 788.425781 603.316406 789.839844 602.371094 C 803.460938 594.160156 804.859375 579.90625 787.40625 574.378906 C 785.058594 575.042969 781.148438 577.175781 779.167969 576.984375 Z M 205.84375 552.234375 C 207.746094 557.191406 210.617188 566.882812 213.160156 571.027344 C 211.851562 565.824219 208.90625 556.425781 205.84375 552.234375 Z M 48.304688 543.328125 C 44.832031 552.964844 41.335938 561.640625 38.046875 567.769531 C 38.324219 566.890625 39.785156 564.367188 40.328125 563.035156 C 43 556.472656 45.667969 549.910156 48.304688 543.328125 Z M 38.046875 567.769531 C 36.410156 570.933594 31.578125 579.789062 30.488281 582.742188 C 34.710938 576.722656 36.433594 575.292969 38.046875 567.769531 Z M 30.488281 582.742188 C 22.796875 574.386719 13.167969 574.675781 9.746094 587.105469 C 10.707031 599.765625 15.707031 598.859375 21.9375 606.441406 C 66.277344 660.382812 177.058594 665.035156 221.816406 610.667969 C 224.75 607.171875 230.382812 602.34375 232.089844 598.148438 C 241.132812 583.910156 222.949219 572.140625 216.476562 578.277344 C 219.164062 578.277344 222.386719 578.171875 225.011719 578.277344 C 231.890625 583.320312 235.621094 596.804688 225.011719 599.765625 C 222.609375 599.269531 221.125 598.972656 218.773438 598.148438 C 215.367188 595.378906 214.171875 591.171875 213.078125 587.105469 C 214.683594 583.546875 215.160156 581.734375 216.476562 578.277344 C 213.867188 579.960938 212.367188 584.195312 211.035156 587.105469 C 213.683594 593.675781 216.199219 595.226562 218.773438 599.765625 C 199.519531 606.558594 148.296875 607.144531 127.300781 606.59375 C 102.144531 606.0625 44.886719 608.058594 25.847656 599.765625 C 32.234375 595.734375 33.742188 589.386719 30.492188 582.742188 Z M 415.257812 237.75 C 417.632812 240.859375 420.230469 243.902344 422.882812 246.765625 C 434.671875 259.484375 432.0625 285.945312 420.378906 298.328125 L 419.070312 299.605469 L 418.632812 299.464844 C 424.730469 278.710938 430.289062 270.984375 418.808594 247.816406 C 417.765625 245.714844 412.800781 239.917969 415.253906 237.75 Z M 410.871094 417.960938 L 411.355469 418.066406 C 412.285156 420.210938 412.253906 421.476562 412.421875 423.765625 C 412.269531 428.382812 412.261719 431.996094 412.421875 436.617188 C 412.328125 441.886719 412.511719 450.984375 414.445312 455.902344 C 413.511719 473.171875 415.109375 492.929688 415.238281 510.167969 L 417.914062 688.902344 C 418.152344 708.425781 419.4375 721.984375 409.070312 739.609375 L 405.5 739.609375 L 405.5 671.351562 L 405.976562 557.792969 C 406.085938 544.78125 404.964844 532.429688 405.691406 518.914062 C 406.777344 539.625 407.066406 562.027344 407.078125 582.746094 L 407.078125 678.902344 C 406.835938 682.378906 406.425781 687.046875 407.078125 690.414062 C 407.121094 696.085938 406.742188 707.207031 407.078125 712.234375 C 407.398438 714.335938 407.539062 716.238281 408.425781 718.152344 C 408.667969 717.847656 408.984375 705.847656 409.070312 704.488281 L 409.070312 702.476562 C 411.183594 684.726562 409.296875 651.050781 409.070312 631.917969 C 409.015625 628.300781 409.011719 624.695312 409.070312 621.074219 L 409.042969 457.234375 C 409.042969 447.210938 408.589844 438.316406 410.101562 428.355469 C 410.480469 425.523438 409.523438 420.652344 410.871094 417.960938 Z M 590.648438 578.277344 C 603.945312 580.472656 595.492188 591.28125 594.46875 598.148438 C 593.046875 605.878906 581.878906 595.691406 580.308594 591.199219 C 580.019531 584.550781 583.703125 578.832031 590.648438 578.277344 Z M 20.765625 578.71875 C 23.128906 578.667969 25.777344 579.871094 28.542969 582.742188 C 30.792969 590.945312 29.863281 597.578125 20.652344 599.765625 C 15.027344 597.925781 13.503906 595.226562 11.554688 589.8125 C 12.785156 583.484375 16.253906 578.816406 20.765625 578.71875 Z M 124.234375 603.40625 L 124.226562 603.40625 L 124.234375 603.414062 C 124.234375 603.410156 124.234375 603.40625 124.234375 603.402344 Z M 124.234375 603.421875 C 124.234375 603.617188 124.226562 603.792969 124.226562 603.945312 L 124.230469 603.886719 L 124.441406 603.707031 Z M 782.484375 604.21875 C 773.558594 615.667969 761.109375 627.347656 747.789062 633.292969 C 747.542969 633.320312 747.378906 633.339844 747.261719 633.351562 C 747.203125 633.359375 747.152344 633.363281 747.109375 633.363281 C 746.894531 633.371094 746.8125 633.300781 746.207031 633.097656 L 745.65625 631.917969 C 747.535156 630.398438 749.621094 628.820312 751.292969 627.101562 C 753.300781 625.890625 762.960938 618.191406 756.625 617.414062 C 750.277344 616.996094 743.5 617.882812 737.152344 618.472656 C 708.960938 621.089844 680.269531 619 652.125 616.457031 C 652.949219 615.566406 653.804688 614.816406 654.695312 613.996094 C 660.714844 614.914062 670.472656 615.429688 682.035156 615.523438 C 716.71875 615.796875 767.632812 612.253906 782.484375 604.21875 Z M 211.035156 608.136719 C 204.519531 617 188.230469 633.269531 176.484375 634.917969 C 174.664062 634.511719 174.894531 634.820312 174.007812 633.292969 C 183.671875 625.804688 208.472656 614.667969 182.035156 616.886719 C 153.71875 619.273438 117.925781 619.042969 89.101562 616.453125 L 88.960938 615.992188 C 90.214844 615.179688 91.761719 615.253906 93.296875 615.144531 C 130.367188 617.285156 174.742188 613.734375 211.035156 608.136719 Z M 391.960938 797.445312 C 393.714844 797.339844 398.113281 797.535156 400.347656 797.53125 C 423.109375 797.5 494.5625 795.460938 498.96875 827.0625 L 498.96875 836.824219 C 495.480469 836.699219 492.457031 836.738281 488.960938 836.824219 C 459.023438 826.894531 469.816406 836.667969 440.9375 816.648438 C 424.207031 805.046875 411.015625 802.210938 391.960938 797.445312 Z M 415.042969 835.4375 C 438.382812 834.480469 461.824219 835.425781 487.597656 837.875 C 494.792969 838.09375 504.335938 839.40625 512.292969 841.746094 C 514.945312 842.527344 517.421875 843.421875 519.574219 844.429688 C 525.828125 849.089844 529.902344 852.523438 533.703125 859.523438 C 534.550781 861.117188 538.132812 867.527344 538.109375 868.757812 C 477.15625 850.25 428.453125 840.613281 362.953125 845.414062 C 356.828125 845.863281 351.84375 846.210938 345.664062 845.917969 L 345.902344 845.597656 C 344.90625 845.332031 344.648438 845.261719 343.757812 844.792969 L 343.082031 844.429688 C 368.457031 839.253906 391.699219 836.394531 415.042969 835.4375 Z M 415.042969 835.4375 " fill-opacity="1" fill-rule="nonzero"/></g></svg>